<?xml version="1.0" encoding="UTF-8"?>
<!-- Created with Inkscape (http://www.inkscape.org/) -->
<svg width="207.55mm" height="32.941mm" version="1.1" viewBox="0 0 207.55 32.941" xmlns="http://www.w3.org/2000/svg" xmlns:cc="http://creativecommons.org/ns#" xmlns:dc="http://purl.org/dc/elements/1.1/" xmlns:rdf="http://www.w3.org/1999/02/22-rdf-syntax-ns#">
 <metadata>
  <rdf:RDF>
   <cc:Work rdf:about="">
    <dc:format>image/svg+xml</dc:format>
    <dc:type rdf:resource="http://purl.org/dc/dcmitype/StillImage"/>
    <dc:title/>
   </cc:Work>
  </rdf:RDF>
 </metadata>
 <g transform="translate(51.588 -120.52)" fill="#fff" stroke-width=".26458">
  <path d="m-25.447 133.09h-14.775c-1.2935 0-2.5 0.65194-3.2091 1.7341-0.83661 1.2766-0.83661 2.9282 0 4.2048 0.70908 1.0822 1.9156 1.7341 3.2091 1.7341h14.775c1.1433 0 2.227-0.50985 2.9557-1.3904 1.1745-1.4192 1.1745-3.4729 0-4.8922-0.72866-0.88053-1.8124-1.3904-2.9557-1.3904z"/>
  <path d="m-24.809 120.52h-22.974c-1.2811 0-2.4855 0.6604-3.1877 1.7322-0.82762 1.2631-0.82629 2.9184 0.0217 4.1682 0.69612 1.0258 1.8555 1.6402 3.0954 1.6402h22.749c2.6813 0 5.2184 1.2139 6.9011 3.3015 2.6165 3.2464 2.6165 7.8777 0 11.124-1.6828 2.0876-4.2198 3.3015-6.9011 3.3015h-7.548c-1.2385 0-2.4027 0.59003-3.135 1.5886l-0.0471 0.064c-1.0038 1.3692-0.97287 3.2396 0.0762 4.5746 0.71702 0.91281 1.8137 1.4457 2.9744 1.4457h7.9108c5.0393 0 9.8115-2.3154 12.94-6.2659 4.753-6.001 4.7517-14.508-0.02487-20.49-3.1205-3.9087-7.8502-6.1846-12.852-6.1846z"/>
  <path d="m-2.7774 135.45c0-1.8203 0.33867-3.4184 1.016-4.7942 0.6985-1.3758 1.6404-2.4342 2.8257-3.175 1.1853-0.74084 2.5082-1.1112 3.9688-1.1112 1.1642 0 2.2225 0.24341 3.175 0.73025 0.97367 0.48683 1.7357 1.143 2.286 1.9685v-8.2232h5.4292v23.495h-5.4292v-2.54c-0.508 0.84666-1.2382 1.524-2.1907 2.032-0.93133 0.508-2.0214 0.762-3.2702 0.762-1.4605 0-2.7834-0.37042-3.9688-1.1112-1.1853-0.762-2.1272-1.8309-2.8257-3.2068-0.67733-1.397-1.016-3.0057-1.016-4.826zm13.271 0.0317c0-1.3547-0.381-2.4236-1.143-3.2068-0.74083-0.78317-1.651-1.1748-2.7305-1.1748s-2.0002 0.39158-2.7622 1.1748c-0.74083 0.762-1.1112 1.8203-1.1112 3.175 0 1.3547 0.37042 2.4342 1.1112 3.2385 0.762 0.78316 1.6828 1.1748 2.7622 1.1748s1.9897-0.39159 2.7305-1.1748c0.762-0.78317 1.143-1.8521 1.143-3.2068zm7.96-0.0317c0-1.8203 0.33867-3.4184 1.016-4.7942 0.6985-1.3758 1.6404-2.4342 2.8258-3.175 1.1853-0.74084 2.5082-1.1112 3.9688-1.1112 1.2488 0 2.3389 0.254 3.2702 0.762 0.9525 0.508 1.6828 1.1748 2.1908 2.0002v-2.5082h5.4292v17.716h-5.4292v-2.5082c-0.52917 0.8255-1.27 1.4922-2.2225 2.0002-0.93133 0.508-2.0214 0.762-3.2702 0.762-1.4393 0-2.7517-0.37042-3.937-1.1112-1.1853-0.762-2.1272-1.8309-2.8258-3.2068-0.67733-1.397-1.016-3.0057-1.016-4.826zm13.272 0.0317c0-1.3547-0.381-2.4236-1.143-3.2068-0.74083-0.78317-1.651-1.1748-2.7305-1.1748s-2.0002 0.39158-2.7622 1.1748c-0.74083 0.762-1.1112 1.8203-1.1112 3.175 0 1.3547 0.37042 2.4342 1.1112 3.2385 0.762 0.78316 1.6828 1.1748 2.7622 1.1748s1.9897-0.39159 2.7305-1.1748c0.762-0.78317 1.143-1.8521 1.143-3.2068zm16.247 9.1122c-1.5452 0-2.921-0.26459-4.1275-0.79375-1.2065-0.52917-2.159-1.2488-2.8575-2.159-0.6985-0.93134-1.0901-1.9685-1.1748-3.1115h5.3658c0.0635 0.61383 0.34925 1.1112 0.85725 1.4922s1.1324 0.5715 1.8732 0.5715c0.67733 0 1.1959-0.127 1.5558-0.381 0.381-0.27517 0.5715-0.62442 0.5715-1.0478 0-0.508-0.26458-0.87842-0.79375-1.1112-0.52917-0.254-1.3864-0.52917-2.5718-0.8255-1.27-0.29634-2.3283-0.60325-3.175-0.92075-0.84667-0.33867-1.5769-0.85725-2.1908-1.5558-0.61383-0.71967-0.92075-1.6828-0.92075-2.8892 0-1.016 0.27517-1.9368 0.8255-2.7622 0.5715-0.84667 1.397-1.5134 2.4765-2.0002 1.1007-0.48684 2.4024-0.73025 3.9052-0.73025 2.2225 0 3.9688 0.55033 5.2388 1.651 1.2912 1.1007 2.032 2.5612 2.2225 4.3815h-5.0165c-0.08467-0.61384-0.35983-1.1007-0.8255-1.4605-0.4445-0.35984-1.0372-0.53975-1.778-0.53975-0.635 0-1.1218 0.127-1.4605 0.381-0.33867 0.23283-0.508 0.56091-0.508 0.98425 0 0.508 0.26458 0.889 0.79375 1.143 0.55033 0.254 1.397 0.508 2.54 0.762 1.3123 0.33866 2.3812 0.67733 3.2068 1.016 0.8255 0.3175 1.5452 0.84666 2.159 1.5875 0.635 0.71966 0.96308 1.6933 0.98425 2.921 0 1.0372-0.29633 1.9685-0.889 2.794-0.5715 0.80433-1.4076 1.4393-2.5082 1.905-1.0795 0.46566-2.3389 0.6985-3.7782 0.6985zm21.07-18.161c2.032 0 3.6618 0.67733 4.8895 2.032 1.2277 1.3335 1.8415 3.175 1.8415 5.5245v10.35h-5.3975v-9.6202c0-1.1853-0.30692-2.1061-0.92075-2.7622-0.61383-0.65617-1.4393-0.98425-2.4765-0.98425-1.0372 0-1.8627 0.32808-2.4765 0.98425-0.61383 0.65616-0.92075 1.5769-0.92075 2.7622v9.6202h-5.4292v-23.495h5.4292v8.1598c0.55033-0.78317 1.3018-1.4076 2.2542-1.8732 0.9525-0.46567 2.0214-0.6985 3.2068-0.6985zm9.1067 9.0488c0-1.8415 0.37042-3.4502 1.1112-4.826 0.762-1.3758 1.8098-2.4342 3.1432-3.175 1.3547-0.74084 2.8998-1.1112 4.6355-1.1112 2.2225 0 4.0746 0.58208 5.5562 1.7462 1.5028 1.1642 2.4871 2.8046 2.9528 4.9212h-5.7785c-0.48683-1.3547-1.4288-2.032-2.8258-2.032-0.99483 0-1.7886 0.39158-2.3812 1.1748-0.59267 0.762-0.889 1.8627-0.889 3.302 0 1.4393 0.29633 2.5506 0.889 3.3338 0.59267 0.762 1.3864 1.143 2.3812 1.143 1.397 0 2.3389-0.67734 2.8258-2.032h5.7785c-0.46567 2.0743-1.4499 3.7042-2.9528 4.8895-1.5028 1.1853-3.3549 1.778-5.5562 1.778-1.7357 0-3.2808-0.37042-4.6355-1.1112-1.3335-0.74084-2.3812-1.7992-3.1432-3.175-0.74083-1.3758-1.1112-2.9845-1.1112-4.826zm28.05 9.1122c-1.7357 0-3.302-0.37042-4.699-1.1112-1.3758-0.74084-2.4659-1.7992-3.2702-3.175-0.78317-1.3758-1.1748-2.9845-1.1748-4.826 0-1.8203 0.40217-3.4184 1.2065-4.7942 0.80433-1.397 1.905-2.4659 3.302-3.2068 1.397-0.74084 2.9633-1.1112 4.699-1.1112 1.7357 0 3.302 0.37041 4.699 1.1112 1.397 0.74083 2.4977 1.8098 3.302 3.2068 0.80434 1.3758 1.2065 2.9739 1.2065 4.7942 0 1.8203-0.41275 3.429-1.2382 4.826-0.80433 1.3758-1.9156 2.4342-3.3338 3.175-1.397 0.74083-2.9633 1.1112-4.699 1.1112zm0-4.699c1.0372 0 1.9156-0.381 2.6352-1.143 0.74084-0.762 1.1112-1.8521 1.1112-3.2702 0-1.4182-0.35983-2.5082-1.0795-3.2702-0.6985-0.762-1.5663-1.143-2.6035-1.143-1.0583 0-1.9368 0.381-2.6352 1.143-0.6985 0.74083-1.0478 1.8309-1.0478 3.2702 0 1.4182 0.33867 2.5082 1.016 3.2702 0.6985 0.762 1.5663 1.143 2.6035 1.143zm10.755-4.445c0-1.8203 0.33867-3.4184 1.016-4.7942 0.6985-1.3758 1.6404-2.4342 2.8258-3.175 1.1853-0.74084 2.5082-1.1112 3.9688-1.1112 1.1642 0 2.2225 0.24341 3.175 0.73025 0.97367 0.48683 1.7357 1.143 2.286 1.9685v-8.2232h5.4292v23.495h-5.4292v-2.54c-0.508 0.84666-1.2382 1.524-2.1908 2.032-0.93133 0.508-2.0214 0.762-3.2702 0.762-1.4605 0-2.7834-0.37042-3.9688-1.1112-1.1853-0.762-2.1272-1.8309-2.8258-3.2068-0.67733-1.397-1.016-3.0057-1.016-4.826zm13.272 0.0317c0-1.3547-0.381-2.4236-1.143-3.2068-0.74083-0.78317-1.651-1.1748-2.7305-1.1748s-2.0002 0.39158-2.7622 1.1748c-0.74083 0.762-1.1112 1.8203-1.1112 3.175 0 1.3547 0.37042 2.4342 1.1112 3.2385 0.762 0.78316 1.6828 1.1748 2.7622 1.1748s1.9897-0.39159 2.7305-1.1748c0.762-0.78317 1.143-1.8521 1.143-3.2068zm25.74-0.28575c0 0.508-0.0317 1.0372-0.0952 1.5875h-12.287c0.0847 1.1007 0.43392 1.9473 1.0478 2.54 0.635 0.5715 1.4076 0.85725 2.3178 0.85725 1.3547 0 2.2966-0.5715 2.8258-1.7145h5.7785c-0.29633 1.1642-0.83608 2.2119-1.6192 3.1432-0.762 0.93133-1.7251 1.6616-2.8892 2.1908-1.1642 0.52916-2.4659 0.79375-3.9052 0.79375-1.7357 0-3.2808-0.37042-4.6355-1.1112-1.3547-0.74084-2.413-1.7992-3.175-3.175-0.762-1.3758-1.143-2.9845-1.143-4.826s0.37042-3.4502 1.1112-4.826c0.762-1.3758 1.8203-2.4342 3.175-3.175 1.3547-0.74084 2.9104-1.1112 4.6672-1.1112 1.7145 0 3.2385 0.35983 4.572 1.0795 1.3335 0.71966 2.3707 1.7462 3.1115 3.0798 0.762 1.3335 1.143 2.8892 1.143 4.6672zm-5.5562-1.4288c0-0.93134-0.3175-1.6722-0.9525-2.2225-0.635-0.55034-1.4288-0.8255-2.3812-0.8255-0.91017 0-1.6828 0.26458-2.3178 0.79375-0.61383 0.52916-0.99483 1.2806-1.143 2.2542z"/>
 </g>
</svg>
